<svg width="69" height="25" viewBox="0 0 69 25" fill="none" xmlns="http://www.w3.org/2000/svg">
<path fill-rule="evenodd" clip-rule="evenodd" d="M68.9999 20.8815C68.9999 22.598 67.913 23.398 65.9676 23.398H62.2497V21.6815H65.9676C66.3109 21.6815 66.5971 21.6247 66.712 21.5106C66.826 21.3958 66.9405 21.2241 66.9405 20.9956C66.9405 20.7662 66.8264 20.5377 66.712 20.4237C66.5971 20.3088 66.3686 20.252 66.0252 20.252C64.2523 20.1943 62.0208 20.3088 62.0208 17.7919C62.0208 16.6473 62.7643 15.3887 64.7666 15.3887H68.5993V17.1052H65.0523C64.7098 17.1052 64.4804 17.1052 64.3087 17.2192C64.137 17.3909 64.023 17.5626 64.023 17.8487C64.023 18.1349 64.1947 18.3066 64.4232 18.4214C64.6525 18.4783 64.8814 18.5355 65.1676 18.5355H66.1969C67.2839 18.5355 67.9706 18.764 68.4285 19.165C68.771 19.5652 68.9999 20.0807 68.9999 20.8815ZM60.9334 19.165C60.4756 18.764 59.7888 18.5355 58.7018 18.5355H57.6725C57.3868 18.5355 57.1575 18.4778 56.9289 18.4214C56.6996 18.3066 56.5288 18.1349 56.5288 17.8487C56.5288 17.5626 56.5856 17.3909 56.8145 17.2192C56.9862 17.1052 57.2147 17.1052 57.5581 17.1052H61.1051V15.3887H57.2723C55.2125 15.3887 54.5257 16.6473 54.5257 17.7919C54.5257 20.3084 56.7573 20.1943 58.531 20.252C58.8735 20.252 59.1029 20.3088 59.2169 20.4237C59.331 20.5377 59.4462 20.7662 59.4462 20.9956C59.4462 21.2241 59.3314 21.3958 59.2169 21.5106C59.0452 21.6247 58.8167 21.6815 58.4733 21.6815H54.7546V23.398H58.4733C60.4179 23.398 61.5053 22.5976 61.5053 20.8815C61.5053 20.0807 61.2768 19.5652 60.9334 19.165ZM53.6104 21.7395H49.0918V20.1375H53.4964V18.5363H49.0918V17.0483H53.6104V15.3895H47.2036V23.3984H53.6104V21.7395ZM45.1437 15.7901C44.5142 15.4467 43.7706 15.3891 42.7981 15.3891H38.3935V23.398H40.338V20.4805H42.3979C43.0838 20.4805 43.4849 20.5381 43.771 20.8239C44.1144 21.2241 44.1144 21.9108 44.1144 22.4259V23.398H46.0017V21.8532C46.0017 21.1096 45.9449 20.7662 45.716 20.366C45.5443 20.1367 45.2018 19.851 44.7439 19.6793C45.2582 19.5084 46.117 18.8216 46.117 17.5626C46.1166 16.6477 45.7732 16.1327 45.1437 15.7901ZM34.2741 15.3891H28.1526L25.6925 18.0208L23.3469 15.3891H15.6238V23.398H23.2329L25.6929 20.7662L28.0385 23.398H31.7573V20.7098H34.1601C35.8189 20.7098 37.4786 20.252 37.4786 18.0208C37.4782 15.8469 35.7617 15.3891 34.2741 15.3891ZM43.5989 18.7076C43.3132 18.8216 43.027 18.8216 42.6836 18.8216L40.338 18.8793V17.0479H42.6836C43.027 17.0479 43.3704 17.0479 43.5989 17.2196C43.8282 17.3345 43.9991 17.563 43.9991 17.9064C43.9991 18.2498 43.8282 18.5359 43.5989 18.7076ZM34.2741 19.1078H31.7568V17.0479H34.2741C34.9609 17.0479 35.4183 17.3345 35.4183 18.0208C35.4183 18.7076 34.9605 19.1078 34.2741 19.1078ZM26.8939 19.3935L29.8687 16.2475V22.712L26.8939 19.3935ZM22.26 21.7395H17.5115V20.1375H21.7449V18.5363H17.5115V17.0483H22.3172L24.4339 19.3939L22.26 21.7395ZM63.6792 9.61092H60.9334L57.3291 3.60384V9.61092H53.4396L52.6952 7.8372H48.6907L47.9471 9.61092H45.7156C44.8003 9.61092 43.5989 9.382 42.913 8.69524C42.2835 8.00889 41.9401 7.09362 41.9401 5.66329C41.9401 4.46187 42.1118 3.37492 42.9694 2.51688C43.5413 1.88735 44.5714 1.60161 45.8869 1.60161H47.7174V3.3181H45.8869C45.2009 3.3181 44.7999 3.43256 44.3997 3.77594C44.0563 4.11932 43.8846 4.74844 43.8846 5.60647C43.8846 6.46451 44.0563 7.09404 44.3997 7.49465C44.6855 7.78039 45.2009 7.89485 45.7152 7.89485H46.5736L49.3194 1.60203H52.1801L55.3837 9.15349V1.60161H58.3589L61.7342 7.15086V1.60161H63.6788V9.61092H63.6792ZM40.9676 1.60161H39.023V9.61092H40.9676V1.60161ZM36.9055 1.94499C36.2759 1.60161 35.59 1.60161 34.6175 1.60161H30.212V9.61092H32.0998V6.69301H34.1593C34.846 6.69301 35.3039 6.75025 35.5896 7.0364C35.933 7.43701 35.8753 8.12377 35.8753 8.58119V9.61092H37.8199V8.00889C37.8199 7.32255 37.7631 6.97917 37.4774 6.57856C37.3057 6.34963 36.9623 6.06348 36.5621 5.89221C37.0763 5.66329 37.9352 5.03417 37.9352 3.77553C37.9356 2.86026 37.5346 2.34519 36.9055 1.94499ZM28.8389 7.95208H24.3767V6.35005H28.7817V4.69121H24.3767V3.26087H28.8389V1.60203H22.4317V9.61133H28.8389V7.95208ZM21.0013 1.60161H17.8549L15.5093 7.0364L12.992 1.60161H9.90284V9.15308L6.64197 1.60161H3.78171L0.349151 9.61092H2.4086L3.15218 7.8372H7.15662L7.9002 9.61092H11.7906V3.3181L14.5936 9.61092H16.2525L19.0559 3.3181V9.61092H21.0009V1.60161H21.0013ZM52.0092 6.12113L50.6929 2.97472L49.3775 6.12113H52.0092ZM35.4183 4.8629C35.1326 5.03459 34.8464 5.03459 34.4458 5.03459H32.0998V3.26128H34.4454C34.7888 3.26128 35.1886 3.26128 35.4179 3.37575C35.6464 3.54744 35.7613 3.77635 35.7613 4.11932C35.7613 4.46228 35.6468 4.74802 35.4183 4.8629ZM3.83852 6.12113L5.1544 2.97472L6.47028 6.12113H3.83852Z" fill="url(#paint0_linear_1109_267)"/>
<defs>
<linearGradient id="paint0_linear_1109_267" x1="34.6457" y1="0" x2="34.6457" y2="25" gradientUnits="userSpaceOnUse">
<stop stop-color="white"/>
<stop offset="1" stop-color="white" stop-opacity="0.75"/>
</linearGradient>
</defs>
</svg>
