<svg width="80" height="21" viewBox="0 0 80 21" fill="none" xmlns="http://www.w3.org/2000/svg">
<path fill-rule="evenodd" clip-rule="evenodd" d="M42.1513 0.739618C38.4583 0.739618 35.4608 3.6271 35.4608 7.18845C35.4608 10.9751 38.328 13.8063 42.1513 13.8063C45.8836 13.8063 48.8247 10.9384 48.8247 7.26445C48.8247 3.6081 45.9033 0.739618 42.1513 0.739618ZM33.0769 17.0303C32.7538 16.7508 32.3409 16.5969 31.9137 16.5967C30.9243 16.5967 30.1684 17.4226 30.1684 18.3998C30.1684 19.3648 30.9175 20.1893 31.9009 20.1893C32.3331 20.1893 32.7491 20.025 33.0762 19.7332V20.3827C32.7369 20.5815 32.3039 20.6914 31.9178 20.6914C30.6604 20.6914 29.6194 19.6918 29.6194 18.4167C29.6194 17.1111 30.6665 16.0939 31.964 16.0939C32.3508 16.0939 32.743 16.1868 33.0762 16.3918V17.0303H33.0769V17.0303ZM37.7274 18.9888H36.1598L36.9443 17.2047L37.7274 18.9888ZM37.9561 19.493L38.4589 20.5985H39.05L36.9443 15.9995L34.8379 20.5985H35.4283L35.9325 19.493H37.9561ZM41.5432 16.6788H41.6891C42.2327 16.6788 42.8889 16.7779 42.8889 17.468C42.8889 18.1704 42.2809 18.2749 41.7183 18.2749H41.5432V16.6788V16.6788ZM42.3433 18.6787C42.9805 18.6034 43.4026 18.0767 43.4026 17.445C43.4026 17.0235 43.1929 16.6069 42.8231 16.3918C42.4716 16.1936 42.0515 16.1868 41.6579 16.1868H40.9922V20.5985H41.5425V18.7323H41.7692L43.0694 20.5985H43.7358L42.3433 18.6787V18.6787ZM46.2453 16.6897H46.4387C47.5625 16.6897 48.5329 17.1057 48.5329 18.3909C48.5329 19.6742 47.5625 20.0943 46.4387 20.0943H46.2453V16.6897V16.6897ZM45.697 20.5978H46.5901C47.9832 20.5978 49.0833 19.873 49.0833 18.3686C49.0833 16.8994 47.9595 16.1861 46.6091 16.1861H45.697V20.5978V20.5978ZM4.1613 0.973739H0.567383V13.5233H4.14298C6.04309 13.5233 7.4166 13.0734 8.62113 12.0751C10.051 10.8889 10.8972 9.10213 10.8972 7.25767C10.8972 3.55178 8.13117 0.973739 4.1613 0.973739V0.973739ZM7.02164 10.401C6.25074 11.0972 5.25251 11.3992 3.67202 11.3992H3.01309V3.09982H3.67202C5.25251 3.09982 6.21206 3.38212 7.02164 4.11638C7.86855 4.86896 8.37615 6.03481 8.37615 7.24003C8.37615 8.44388 7.86855 9.64841 7.02164 10.401ZM12.0264 13.5233H14.4728V0.973739H12.0264V13.5233V13.5233ZM20.4568 5.79119C18.9889 5.24559 18.556 4.88796 18.556 4.21071C18.556 3.42013 19.3276 2.8182 20.3814 2.8182C21.1157 2.8182 21.7176 3.1195 22.3576 3.83408L23.6381 2.15927C22.5835 1.23771 21.3227 0.767441 19.9492 0.767441C17.7288 0.767441 16.0343 2.3106 16.0343 4.36136C16.0343 6.09317 16.8255 6.97672 19.1206 7.8053C20.0801 8.14393 20.5694 8.36991 20.8144 8.51988C21.3037 8.84086 21.5487 9.29146 21.5487 9.81942C21.5487 10.8353 20.7397 11.5865 19.6479 11.5865C18.4813 11.5865 17.5408 11.0043 16.9755 9.91239L15.3943 11.4366C16.5242 13.0917 17.8787 13.8266 19.7415 13.8266C22.2822 13.8266 24.069 12.1321 24.069 9.70474C24.0697 7.7103 23.2411 6.80707 20.4568 5.79119V5.79119ZM24.8406 7.25834C24.8406 10.9473 27.7383 13.8069 31.4645 13.8069C32.5184 13.8069 33.4209 13.5993 34.5318 13.0734V10.1933C33.5539 11.1719 32.688 11.5668 31.5778 11.5668C29.1131 11.5668 27.363 9.78006 27.363 7.24003C27.363 4.83164 29.1694 2.93085 31.4645 2.93085C32.631 2.93085 33.5159 3.34412 34.5318 4.34236V1.46302C33.4596 0.917415 32.5754 0.691437 31.5215 0.691437C27.8143 0.691437 24.8406 3.6081 24.8406 7.25834V7.25834ZM54.3635 9.40411L51.0146 0.973739H48.3422L53.6693 13.8443H54.9851L60.4052 0.973739H57.7512L54.3635 9.40411V9.40411ZM61.5154 13.5233H68.4596V11.3985H63.9625V8.0116H68.29V5.88484H63.9625V3.09982H68.4596V0.973739H61.5154V13.5233V13.5233ZM78.1481 4.68031C78.1481 2.32892 76.5297 0.973739 73.7094 0.973739H70.0774V13.5233H72.5231V8.4812H72.8441L76.2304 13.5233H79.2421L75.2898 8.2369C77.1329 7.86095 78.1481 6.60009 78.1481 4.68031V4.68031ZM73.2391 6.75075H72.5231V2.94985H73.2757C74.8012 2.94985 75.6285 3.5891 75.6285 4.81264C75.6285 6.07281 74.8012 6.75075 73.2391 6.75075V6.75075ZM79.8766 1.90954C79.8766 1.69035 79.7252 1.56888 79.4565 1.56888H79.1036V2.67637H79.3649V2.24817L79.675 2.67637H80.0001L79.6329 2.22034C79.789 2.17827 79.8766 2.06494 79.8766 1.90954V1.90954ZM79.4124 2.06155H79.3649V1.7745H79.4151C79.5447 1.7745 79.6126 1.82132 79.6126 1.91565C79.6126 2.01201 79.5427 2.06155 79.4124 2.06155V2.06155Z" fill="url(#paint0_linear_1113_375)"/>
<defs>
<linearGradient id="paint0_linear_1113_375" x1="40.2837" y1="0.691437" x2="40.2837" y2="20.6914" gradientUnits="userSpaceOnUse">
<stop stop-color="white"/>
<stop offset="1" stop-color="white" stop-opacity="0.75"/>
</linearGradient>
</defs>
</svg>
