<svg width="32" height="25" viewBox="0 0 32 25" fill="none" xmlns="http://www.w3.org/2000/svg">
<path d="M18.9215 24.9999C25.7591 25.0325 32.0001 19.4274 32.0001 12.6086C32.0001 5.15176 25.7591 -0.00247925 18.9215 8.94667e-07H13.0369C6.11734 -0.00247925 0.421875 5.15329 0.421875 12.6086C0.421875 19.4289 6.11734 25.0326 13.0369 24.9999H18.9215Z" fill="#9E9E9E"/>
<path d="M13.0647 1.0332C6.74183 1.03519 1.61819 6.15668 1.6167 12.4776C1.61819 18.7975 6.74178 23.9185 13.0647 23.9205C19.3891 23.9185 24.5138 18.7975 24.5147 12.4776C24.5137 6.15668 19.3891 1.03519 13.0647 1.0332V1.0332ZM5.80814 12.4776C5.81409 9.38886 7.74452 6.75495 10.4667 5.70828V19.2454C7.74452 18.1993 5.81404 15.5668 5.80814 12.4776V12.4776ZM15.6618 19.2484V5.70783C18.3849 6.75197 20.3183 9.38737 20.3233 12.4776C20.3183 15.5688 18.3849 18.2022 15.6618 19.2484Z" fill="#EEEEEE"/>
<path d="M18.9215 24.9999C25.7591 25.0325 32.0001 19.4274 32.0001 12.6086C32.0001 5.15176 25.7591 -0.00247925 18.9215 8.94667e-07H13.0369C6.11734 -0.00247925 0.421875 5.15329 0.421875 12.6086C0.421875 19.4289 6.11734 25.0326 13.0369 24.9999H18.9215Z" fill="#9E9E9E"/>
<path d="M13.0647 1.0332C6.74183 1.03519 1.61819 6.15668 1.6167 12.4776C1.61819 18.7975 6.74178 23.9185 13.0647 23.9205C19.3891 23.9185 24.5138 18.7975 24.5147 12.4776C24.5137 6.15668 19.3891 1.03519 13.0647 1.0332V1.0332ZM5.80814 12.4776C5.81409 9.38886 7.74452 6.75495 10.4667 5.70828V19.2454C7.74452 18.1993 5.81404 15.5668 5.80814 12.4776V12.4776ZM15.6618 19.2484V5.70783C18.3849 6.75197 20.3183 9.38737 20.3233 12.4776C20.3183 15.5688 18.3849 18.2022 15.6618 19.2484Z" fill="#EEEEEE"/>
</svg>
