<svg width="58" height="25" viewBox="0 0 58 25" fill="none" xmlns="http://www.w3.org/2000/svg">
<g clip-path="url(#clip0_1113_302)">
<path d="M16.3643 0H10.4172C7.78933 0.124355 5.64133 1.18368 5.02112 3.36819C4.69772 4.50745 4.51974 5.75867 4.26685 6.93965C2.98125 12.9445 1.8413 19.1149 0.611572 25H46.9123C50.4918 25 52.9497 24.2429 53.6137 21.3993C53.9223 20.0784 54.2178 18.5825 54.5131 17.1312C55.6638 11.4729 56.8156 5.81493 57.9944 0H16.3643Z" fill="url(#paint0_linear_1113_302)"/>
<path d="M15.9001 8.885C16.1488 8.71352 16.4691 7.93256 16.1032 7.60741C15.9873 7.50447 15.7934 7.47459 15.5229 7.52037C15.2721 7.56276 15.1278 7.64811 15.0298 7.78171C14.8723 7.99648 14.7278 8.64441 14.9718 8.88512C15.2095 9.1194 15.7418 8.99403 15.9001 8.885V8.885ZM12.3608 7.60741C12.1826 8.76471 11.9819 9.89946 11.7806 11.0337C10.4882 11.0473 9.16872 11.0975 7.92221 11.0046C8.15763 9.89495 8.32649 8.7186 8.56045 7.60741H7.16795C6.6695 10.4379 6.216 13.3136 5.65942 16.086H7.08099C7.30391 14.664 7.51252 13.2273 7.80618 11.8757C9.01823 11.8459 10.4709 11.7938 11.6356 11.9048C11.3955 13.3099 11.1053 14.6646 10.8814 16.086H12.3029C12.7598 13.2136 13.2409 10.3659 13.8115 7.60741H12.3608V7.60741ZM32.4651 10.0465C31.359 9.59934 30.4894 10.3549 30.0863 11.0627C30.1778 10.7479 30.2154 10.3791 30.2895 10.0465H29.1871C28.9175 12.1384 28.5203 14.1024 28.1427 16.086H29.3903C29.5651 14.9086 29.6406 13.3214 30.0284 12.1951C30.3384 11.2951 31.1496 10.5283 32.3202 10.9466C32.3365 10.6146 32.4314 10.3611 32.4651 10.0465V10.0465ZM33.1612 14.6633C33.0462 14.3659 33.0166 13.875 33.0453 13.5017C33.1098 12.6628 33.4152 11.6413 33.8867 11.1789C34.5372 10.5406 35.8214 10.6463 36.8458 11.0047C36.8775 10.6591 36.9468 10.3509 36.9909 10.0175C35.3109 9.74286 33.7168 9.91378 32.8715 10.8015C32.0439 11.6705 31.5017 13.6679 31.885 14.9246C32.3338 16.3952 34.3462 16.4752 35.9755 15.9119C36.0476 15.6163 36.0858 15.2868 36.1496 14.9828C35.2591 15.4456 33.5569 15.6862 33.1612 14.6633V14.6633ZM47.1734 10.0755C46.0709 9.52369 45.1529 10.4495 44.7946 11.0046C44.8967 10.7198 44.9025 10.3384 44.9976 10.0464H43.8953C43.598 12.1202 43.2398 14.1328 42.822 16.0859H44.0985C44.1065 15.2854 44.2636 14.6933 44.3884 13.9084C44.6552 12.2321 45.0469 10.394 46.9996 10.9465C47.0641 10.6631 47.0911 10.3415 47.1734 10.0755ZM14.6236 10.0465C14.5898 10.0513 14.5921 10.0924 14.5945 10.1335C14.3197 12.191 13.9476 14.1513 13.5502 16.0859H14.7976C15.0974 14.0146 15.4407 11.9871 15.871 10.0464L14.6236 10.0465V10.0465ZM25.5896 9.93035C24.6882 9.99992 23.9263 10.2595 23.3848 10.8305C22.7206 11.5307 22.1829 13.079 22.3405 14.4891C22.5653 16.5007 25.0677 16.4284 27.0691 15.9409C27.1033 15.5878 27.1886 15.286 27.2432 14.9536C26.4187 15.2624 24.9871 15.6934 24.1389 15.157C23.4987 14.7517 23.495 13.7258 23.7038 12.834C25.049 12.7912 26.4471 12.7993 27.7942 12.834C27.8796 12.202 28.1241 11.5129 27.9102 10.8887C27.6282 10.0645 26.6178 9.85098 25.5896 9.93035ZM26.779 12.1371H23.8488C23.9416 11.4629 24.5476 10.7218 25.5025 10.6853C26.4012 10.6509 27.0446 11.0155 26.779 12.1371V12.1371ZM20.8609 10.0465C19.8051 9.64951 18.5184 10.1234 17.9604 10.5741C17.9625 10.594 17.9471 10.5967 17.9307 10.5981C17.9402 10.5901 17.9505 10.5821 17.9604 10.5741C17.9603 10.5725 17.9602 10.5708 17.9599 10.5692C17.9692 10.3753 18.0374 10.2403 18.0468 10.0465H16.9735C16.5261 13.025 15.9957 15.9203 15.436 18.7863H16.6834C16.864 17.6701 16.9831 16.4925 17.2347 15.4472C17.5195 16.5467 19.3797 16.3366 20.1648 15.9118C21.7842 15.0351 23.0335 10.8632 20.8609 10.0465V10.0465ZM19.8746 14.9536C19.2072 15.6611 17.5664 15.6505 17.4377 14.4599C17.3817 13.942 17.5744 13.3989 17.6699 12.863C17.7662 12.3206 17.8357 11.8002 17.9308 11.3241C18.5882 10.5207 20.5199 10.4236 20.7159 11.7596C20.8859 12.9195 20.4272 14.3677 19.8746 14.9536V14.9536ZM51.815 7.43322C51.7081 8.37146 51.5652 9.27374 51.38 10.1335C48.32 9.16404 46.4435 11.4174 46.4773 14.1987C46.4839 14.7366 46.5764 15.27 46.9123 15.6505C47.4917 16.3059 49.1501 16.463 49.9876 15.9117C50.1496 15.805 50.3153 15.6109 50.4226 15.4763C50.5034 15.3749 50.6315 15.1094 50.6548 15.1859C50.6106 15.4804 50.5448 15.7535 50.5389 16.0859H51.6703C51.8884 12.9552 52.5625 10.2813 53.0628 7.43311H51.8151V7.43322H51.815ZM49.0301 15.4181C48.1904 15.4361 47.7728 14.9159 47.7535 14.0535C47.7201 12.5429 48.3821 10.8648 49.7264 10.7143C50.3522 10.6442 50.8054 10.7899 51.264 10.9466C50.8429 12.6434 50.9948 15.3759 49.0301 15.4181V15.4181ZM38.2671 10.0465C38.2057 10.3915 38.1115 10.7037 38.0351 11.0337C38.7712 10.8489 41.0634 10.2825 41.2843 11.2659C41.3576 11.5926 41.2311 11.9398 41.1392 12.1951C39.0666 11.9986 37.3771 12.3433 36.9327 13.8211C36.635 14.811 36.966 15.7851 37.6 16.057C38.8209 16.5806 40.306 15.9808 40.8201 15.157C40.7667 15.4421 40.7161 15.7304 40.7332 16.086H41.8065C41.818 15.0571 41.9676 14.2243 42.1256 13.2984C42.2604 12.51 42.5139 11.7295 42.4738 11.0337C42.3814 9.44004 39.7437 10.0038 38.2671 10.0465V10.0465ZM40.2979 14.9245C39.655 15.5544 37.8505 15.7333 38.0351 14.2277C38.1883 12.9771 39.5488 12.7114 41.023 12.8919C40.9135 13.576 40.7878 14.4446 40.2979 14.9245V14.9245Z" fill="#9E9E9E"/>
</g>
<defs>
<linearGradient id="paint0_linear_1113_302" x1="29.303" y1="0" x2="29.303" y2="25" gradientUnits="userSpaceOnUse">
<stop stop-color="white"/>
<stop offset="1" stop-color="white" stop-opacity="0.75"/>
</linearGradient>
<clipPath id="clip0_1113_302">
<rect width="57.3944" height="25" fill="white" transform="translate(0.605713)"/>
</clipPath>
</defs>
</svg>
