<svg width="42" height="25" viewBox="0 0 42 25" fill="none" xmlns="http://www.w3.org/2000/svg">
<path fill-rule="evenodd" clip-rule="evenodd" d="M21.2632 21.7646C22.5511 20.5897 23.5791 19.1587 24.2815 17.5632C24.9839 15.9677 25.3451 14.2431 25.3419 12.4999C25.3451 10.7567 24.984 9.03201 24.2816 7.43655C23.5792 5.84109 22.5511 4.41005 21.2632 3.2352C19.0611 1.22501 16.1398 0 12.934 0C6.08168 0 0.526367 5.59632 0.526367 12.4999C0.526367 19.4032 6.08168 24.9998 12.934 24.9998C16.1398 24.9998 19.0613 23.7748 21.2632 21.7646Z" fill="#9E9E9E"/>
<path fill-rule="evenodd" clip-rule="evenodd" d="M29.5924 0C26.3867 0 23.465 1.22501 21.2632 3.2352C20.8142 3.64548 20.3955 4.08779 20.0105 4.55863H22.5151C22.8589 4.9789 23.1751 5.42104 23.4616 5.88229H19.0646C18.7999 6.30881 18.561 6.75082 18.3492 7.20594H24.1759C24.3764 7.6367 24.5522 8.07856 24.7024 8.52937H17.8239C17.6796 8.96358 17.5594 9.40539 17.4636 9.85281H25.0628C25.2489 10.7229 25.3425 11.6102 25.3421 12.4999C25.3421 13.8876 25.1169 15.2228 24.7026 16.4702H17.8239C17.9735 16.9211 18.1489 17.3631 18.3492 17.7938H24.1759C23.9645 18.249 23.7259 18.691 23.4614 19.1175H19.0646C19.3509 19.5787 19.6667 20.0209 20.0103 20.4411H22.5151C22.1305 20.9122 21.7121 21.3546 21.2632 21.7648C23.465 23.775 26.3867 25 29.5924 25C36.4446 25 42.0001 19.4035 42.0001 12.5001C42.0001 5.59632 36.4446 0 29.5924 0Z" fill="#C7C7C7"/>
<path fill-rule="evenodd" clip-rule="evenodd" d="M37.7241 15.2091C37.7241 14.9861 37.9035 14.8052 38.1247 14.8052C38.3459 14.8052 38.5253 14.9861 38.5253 15.2091C38.5253 15.4321 38.3459 15.6125 38.1247 15.6125C37.9035 15.6125 37.7241 15.4319 37.7241 15.2091ZM38.1245 15.5154C38.2925 15.5154 38.4288 15.3782 38.4288 15.2089C38.4288 15.0391 38.2925 14.9018 38.1245 14.9018C37.956 14.9018 37.8201 15.0391 37.8201 15.2089C37.8201 15.3782 37.9562 15.5154 38.1245 15.5154ZM38.0704 15.386H37.9881V15.0313H38.1371C38.1679 15.0313 38.1998 15.0317 38.2267 15.0495C38.2408 15.0594 38.2523 15.0726 38.2602 15.088C38.268 15.1034 38.272 15.1204 38.2717 15.1377C38.2717 15.178 38.2486 15.2153 38.2107 15.2295L38.2757 15.3858H38.1848L38.1307 15.2454H38.0706V15.386V15.1851H38.1161C38.1329 15.1851 38.1515 15.1865 38.1659 15.1783C38.1725 15.1737 38.1778 15.1676 38.1814 15.1604C38.185 15.1533 38.1869 15.1455 38.1868 15.1375C38.1866 15.1303 38.1847 15.1232 38.1813 15.1169C38.1778 15.1105 38.1728 15.1051 38.1668 15.1011C38.1526 15.0929 38.1296 15.0947 38.1145 15.0947H38.0708V15.386H38.0704ZM11.3841 15.6125H9.83985L10.7576 10.7409L8.64455 15.6125H7.23643L6.97906 10.7688L6.05842 15.6125H4.65674L5.85448 9.27537H8.26414L8.39161 13.1987L10.0906 9.27537H12.6015L11.3841 15.6125V15.6125ZM28.6421 15.5494C28.2196 15.6662 27.8893 15.7165 27.5324 15.7165C26.7423 15.7165 26.3109 15.3173 26.3109 14.5848C26.3109 14.4399 26.3269 14.2856 26.3564 14.1224L26.4504 13.6185L26.5226 13.2106L27.2384 9.27515H28.7742L28.5517 10.4587H29.3397L29.128 11.7116H28.3366L27.9296 13.8619C27.9145 13.9322 27.9057 14.0036 27.9032 14.0754C27.9032 14.3416 28.0631 14.4574 28.4302 14.4574C28.606 14.4574 28.7423 14.4414 28.8467 14.4093L28.6421 15.5494ZM33.1524 10.501C33.0229 10.4496 32.9926 10.4496 32.9775 10.4454C32.8957 10.4272 32.852 10.4166 32.8445 10.4152C32.7932 10.4063 32.7412 10.402 32.6891 10.4024C32.1821 10.4024 31.8166 10.6298 31.3439 11.2392L31.4803 10.4583H30.0817L29.1404 15.6123H30.6858C31.2386 12.4602 31.4754 11.9083 32.2167 11.9083C32.2726 11.9083 32.3371 11.9127 32.412 11.9213L32.5924 11.9584L33.1524 10.501V10.501ZM22.5204 12.0869C22.5204 12.738 22.8846 13.1865 23.7102 13.5234C24.3428 13.7824 24.4406 13.8582 24.4406 14.0923C24.4406 14.413 24.1617 14.5578 23.5439 14.5578C23.0775 14.5578 22.6441 14.4946 22.1438 14.3538L21.9294 15.5427L21.9986 15.5545L22.2848 15.6072C22.377 15.6232 22.5129 15.6385 22.6931 15.6522C23.0646 15.6813 23.3521 15.695 23.5548 15.695C25.2032 15.695 25.9646 15.1508 25.9646 13.9752C25.9646 13.2678 25.6463 12.8531 24.8636 12.5407C24.2085 12.2798 24.1327 12.2219 24.1327 11.9814C24.1327 11.7037 24.3925 11.5609 24.8973 11.5609C25.2043 11.5609 25.6228 11.5899 26.0198 11.6383L26.2424 10.4452C25.8381 10.3898 25.2245 10.3443 24.8678 10.3443C23.12 10.3445 22.5151 11.1364 22.5204 12.0869V12.0869ZM16.4042 15.6125H15.1209L15.1509 15.0783C14.76 15.5013 14.2391 15.7017 13.531 15.7017C12.6942 15.7017 12.1198 15.1275 12.1198 14.294C12.1198 13.0384 13.1176 12.3066 14.8325 12.3066C15.0083 12.3066 15.2316 12.3206 15.4617 12.3463C15.5095 12.1769 15.5226 12.1038 15.5226 12.0116C15.5226 11.6704 15.2533 11.5427 14.5322 11.5427C14.0912 11.5427 13.5929 11.5986 13.2488 11.6864L13.0349 11.7411L12.8964 11.7744L13.1105 10.6156C13.8804 10.417 14.3885 10.3419 14.9593 10.3419C16.2865 10.3419 16.9879 10.8655 16.9879 11.8537C16.9879 12.108 16.9647 12.3011 16.8625 12.8748L16.5397 14.7032L16.4854 15.0313L16.4459 15.2933L16.4195 15.4727L16.4042 15.6125V15.6125ZM15.2777 13.3164C15.1632 13.3021 15.0479 13.295 14.9325 13.2951C14.0573 13.2951 13.614 13.5587 13.614 14.0792C13.614 14.4 13.8303 14.6048 14.1679 14.6048C14.7975 14.605 15.2511 14.0785 15.2777 13.3164ZM21.4703 15.5013C20.9545 15.6412 20.4224 15.7115 19.888 15.7103C18.1615 15.709 17.2617 14.9171 17.2617 13.4013C17.2617 11.6321 18.4065 10.3295 19.9604 10.3295C21.2318 10.3295 22.0436 11.059 22.0436 12.2029C22.0436 12.5826 21.9881 12.9528 21.854 13.4753H18.7835C18.7741 13.5288 18.7692 13.5829 18.7687 13.6372C18.7687 14.2346 19.2265 14.5394 20.1234 14.5394C20.6749 14.5394 21.1735 14.4385 21.727 14.2133L21.4703 15.5013ZM20.6479 12.4345C20.6563 12.3272 20.6607 12.2395 20.6607 12.1716C20.6607 11.7531 20.3901 11.5075 19.9303 11.5075C19.439 11.5075 19.0877 11.8369 18.9451 12.4314L20.6479 12.4345ZM37.9527 13.2758C37.7215 14.9903 36.533 15.7506 34.9531 15.7506C33.2061 15.7506 32.5004 14.683 32.5004 13.3749C32.5004 11.5483 33.6955 10.3106 35.5412 10.3106C37.1433 10.3106 37.9939 11.3283 37.9939 12.6367C37.9939 12.955 37.9935 12.9761 37.9527 13.2758ZM36.3623 12.6163C36.3623 12.0772 36.1451 11.5682 35.512 11.5682C34.7239 11.5682 34.2355 12.5066 34.2355 13.335C34.2355 14.0337 34.5703 14.5033 35.1223 14.4933C35.457 14.4933 36.1708 14.034 36.312 13.2317C36.3451 13.0446 36.3623 12.8393 36.3623 12.6163V12.6163Z" fill="white"/>
</svg>
